<svg width="39" height="41" viewBox="0 0 39 41" fill="none" xmlns="http://www.w3.org/2000/svg">
<path fill-rule="evenodd" clip-rule="evenodd" d="M16.4106 0.101864C13.0074 0.604194 10.0756 2.10059 7.47522 4.66228C6.90356 5.22554 6.10359 6.12427 5.69765 6.65939C5.29171 7.19461 4.58631 8.09525 4.12998 8.66094C2.0994 11.1785 0.909132 13.651 0.282754 16.6529C-0.0217255 18.1116 -0.093075 21.0302 0.131398 22.8383C1.02427 30.03 5.08771 36.1964 10.9134 39.2006C11.8941 39.7063 13.453 40.3115 13.7751 40.3115C13.879 40.3115 13.9662 40.2548 13.9689 40.1854C13.9716 40.1161 13.9695 37.2157 13.9643 33.7402L13.9548 27.4211L14.6065 27.1085C15.53 26.6655 16.422 25.7335 16.6957 24.9259C16.9335 24.2241 16.9889 24.4875 16.7656 25.2584C16.5084 26.1465 15.4156 27.1726 14.3471 27.5293C14.2601 27.5583 14.1589 27.7335 14.1222 27.9186C14.0391 28.3392 14.1172 38.789 14.2053 39.011C14.2435 39.1072 14.6178 39.2818 15.1256 39.4403C16.9275 40.0026 19.0378 40.1457 21.2155 39.853C23.1411 39.5942 25.2171 39.0007 25.4084 38.6542C25.4918 38.5033 25.5339 36.8788 25.5598 32.8205C25.5956 27.1967 25.5956 27.1959 25.3929 27.1959C25.2814 27.1959 24.9456 27.102 24.6466 26.9874C22.4885 26.1595 21.1716 23.9403 21.0087 20.8567L20.9573 19.8814L21.0922 20.9407C21.2802 22.4174 21.4029 22.8767 21.8872 23.917C22.5923 25.4313 23.8026 26.4732 25.2393 26.8028C25.702 26.9089 25.8037 26.9051 25.9289 26.7769C26.1693 26.5303 25.9929 26.3133 25.4459 26.1829C23.7417 25.7768 22.475 24.344 21.9266 22.2018C21.7621 21.5594 21.7195 21.0908 21.7183 19.9054C21.7169 18.7055 21.6886 18.3999 21.5729 18.3335C21.2658 18.1574 21.9927 15.9749 22.74 14.8296C23.5242 13.6274 24.4298 12.9618 25.5192 12.7866C28.4958 12.3081 30.9605 16.0881 30.7647 20.8317C30.7048 22.2791 30.5435 23.0011 30.0461 24.0454C29.4493 25.2985 28.2246 26.3362 27.0957 26.5451C26.8825 26.5846 26.6528 26.6619 26.5851 26.7169C26.3957 26.871 26.4176 34.5245 26.6149 37.1335C26.7199 38.5216 26.8094 39.1947 26.9015 39.2903C27.1789 39.5781 30.0137 38.0564 31.8679 36.6244C36.8254 32.7958 39.3693 27.1307 38.9566 20.838C38.7328 17.4252 38.0716 15.0298 36.3975 11.566C35.0018 8.67859 34.1482 7.43069 32.3061 5.58471C29.5347 2.80762 25.6101 0.859344 21.4611 0.201039C20.0757 -0.0187996 17.5621 -0.0681348 16.4106 0.101864ZM21.1625 0.819693C22.5077 1.01209 24.1669 1.44208 25.4525 1.9316C26.6798 2.39882 26.8764 2.57457 25.7258 2.17585C24.2121 1.65133 22.9689 1.44824 20.9371 1.39365C18.9218 1.33948 17.7566 1.43926 15.8568 1.82869C13.0928 2.39539 10.2781 3.58921 7.96107 5.17772L7.71505 5.34641L7.91187 5.11073C8.30275 4.6428 10.042 3.28301 10.9353 2.74709C12.7261 1.67261 14.6402 0.988078 16.5719 0.731414C17.3924 0.622353 20.1538 0.675522 21.1625 0.819693ZM26.2653 3.05349C29.8301 4.41732 32.9807 7.10179 35.1066 10.5868C36.6272 13.0796 37.2854 16.6424 36.9541 20.5876C36.8584 21.7269 36.759 21.6506 36.6654 20.3655C36.579 19.179 36.169 17.2079 35.7113 15.7791C33.8114 9.8474 29.9374 4.97493 25.478 2.90811C24.5766 2.49033 24.9957 2.56771 26.2653 3.05349ZM13.6196 3.22268C8.48265 5.39161 4.69299 9.84134 3.33336 15.3009C2.681 17.9201 2.68375 21.6296 3.34034 24.7219C4.01661 27.9069 5.3294 30.9453 7.13365 33.5015C7.38282 33.8545 7.15372 33.656 6.37009 32.8398C2.04754 28.3381 0.61646 22.1561 2.30586 15.283C2.82123 13.1862 3.7515 10.8861 4.81206 9.08598C5.42929 8.03834 6.63343 6.89688 8.37233 5.71092C10.0552 4.5632 11.6365 3.77647 13.8165 3.00224C14.4845 2.76505 14.3519 2.91346 13.6196 3.22268ZM27.3025 12.0162C29.0392 12.477 30.5293 14.2743 31.2352 16.7601C32.4194 20.9299 31.5261 25.0887 29.1008 26.6957C28.7893 26.9021 28.2389 27.153 27.8777 27.2533L27.221 27.4355L27.282 31.6791C27.3406 35.7574 27.4373 37.417 27.628 37.6124C27.8831 37.874 30.8938 35.8481 32.2863 34.4778C34.4566 32.3423 35.663 30.0926 36.3066 26.9813C36.4257 26.4057 36.6711 25.3445 36.8519 24.6232C37.4807 22.1157 37.7334 20.0121 37.6638 17.8672C37.6412 17.1704 37.6523 16.6575 37.6886 16.7275C37.7249 16.7975 37.8476 17.3541 37.9614 17.9645C38.6034 21.4121 38.4695 24.7127 37.5733 27.5287C36.1762 31.9183 32.7759 35.8146 28.3699 38.074L27.3747 38.5844L27.3163 38.0103C27.1509 36.3803 27.0453 33.0651 27.0719 30.3375L27.1018 27.2743L27.7093 27.0489C29.069 26.5441 29.959 25.6879 30.6428 24.2265C31.5489 22.2895 31.6945 20.0012 31.0729 17.46C30.2234 13.9865 28.1392 11.889 25.7421 12.095C24.9992 12.1589 24.9301 12.1189 25.533 11.974C26.1238 11.8322 26.6565 11.8449 27.3025 12.0162ZM10.6815 17.3438C10.694 21.8833 10.7136 22.4849 10.856 22.7076C11.0131 22.9534 11.3402 23.0338 11.5629 22.8813C11.895 22.6539 11.927 22.3041 12.0713 17.3125C12.1507 14.5637 12.2548 12.2715 12.3026 12.2188C12.3574 12.1584 12.4248 12.1592 12.4853 12.2211C12.5429 12.2802 12.6068 14.2859 12.6458 17.2606C12.7161 22.6261 12.7399 22.8576 13.2187 22.8576C13.3779 22.8576 13.5277 22.7633 13.6351 22.5954C13.7849 22.3609 13.8089 21.8102 13.8619 17.3744C13.8945 14.647 13.956 12.358 13.9986 12.2878C14.1254 12.0788 14.2446 12.241 14.2984 12.6953C14.3261 12.9299 14.3733 14.2114 14.4033 15.5431C14.5571 22.376 14.5879 22.7609 14.9931 22.9204C15.2551 23.0235 15.5985 22.8733 15.7186 22.6031C15.8018 22.4158 15.8339 20.9287 15.8339 17.2535C15.8339 12.9025 15.8543 12.1633 15.9749 12.1633C16.0524 12.1633 16.152 12.2654 16.1963 12.3903C16.2405 12.5152 16.2656 15.2729 16.2519 18.5187L16.2272 24.42L15.9758 24.9468C15.8375 25.2365 15.522 25.6562 15.2747 25.8794C14.8303 26.2804 13.9124 26.7923 13.6377 26.7923C13.257 26.7923 13.2523 26.8803 13.2892 33.2982C13.3127 37.4019 13.2914 39.5041 13.2262 39.5036C13.0043 39.5017 10.907 38.5071 10.1514 38.0454C6.98957 36.1137 4.54252 33.3281 2.79151 29.6677C1.29057 26.53 0.643425 23.696 0.637225 20.2345C0.632009 17.3123 0.993666 15.5991 2.20007 12.8318C2.54313 12.0449 2.61516 12.1596 2.30625 13.0009C1.3008 15.7396 0.757382 20.0121 1.0654 22.7567C1.55824 27.1478 3.23367 30.6521 6.30228 33.7098C7.42396 34.8275 8.01353 35.3094 9.48643 36.3126C10.0277 36.6812 10.863 37.2551 11.3425 37.5878C11.8222 37.9205 12.254 38.1928 12.302 38.1928C12.3519 38.1928 12.3895 35.9162 12.3895 32.893C12.3895 27.9349 12.3784 27.5893 12.2173 27.535C11.3579 27.2448 10.3362 26.4753 10.0291 25.887C9.96332 25.7609 10.1479 25.9018 10.4395 26.1999C11.0234 26.797 11.9121 27.2968 12.3898 27.2968C12.6654 27.2968 12.6946 27.2685 12.6666 27.0288C12.6423 26.8189 12.5518 26.7313 12.2492 26.6244C11.1928 26.2512 10.4447 25.4601 10.2076 24.4651C10.104 24.0308 10.0325 23.9105 9.86314 23.8858C9.66829 23.8573 9.65343 23.8083 9.69417 23.3309C9.71877 23.0429 9.87219 20.4502 10.0352 17.5696C10.198 14.6889 10.3556 12.2915 10.3853 12.2423C10.415 12.193 10.4907 12.1703 10.5534 12.1917C10.6375 12.2205 10.6711 13.57 10.6815 17.3438ZM24.3955 39.6236C22.3005 40.2072 21.1272 40.3532 18.6877 40.3337C17.4699 40.3239 16.2742 40.3036 16.0307 40.2885C15.6201 40.2631 15.5878 40.2789 15.5878 40.506C15.5878 40.8737 15.9213 40.9343 18.2449 40.9887C20.6159 41.0441 21.9959 40.9033 23.9866 40.4028C25.5972 39.998 25.6748 39.9643 25.6748 39.6691C25.6748 39.5349 25.6195 39.405 25.5518 39.3804C25.4842 39.3558 24.9638 39.4653 24.3955 39.6236Z" fill="white"/>
</svg>
